<svg version="1.1" id="Layer_1" xmlns="http://www.w3.org/2000/svg" xmlns:xlink="http://www.w3.org/1999/xlink" x="0px" y="0px"
	 width="100%" viewBox="0 0 128 128" enable-background="new 0 0 128 128" xml:space="preserve">
<path fill="#1D1A1C" opacity="1.000000" stroke="none" 
	d="
M129.000000,54.000000 
	C129.000000,78.978462 129.000000,103.956917 129.000000,128.935379 
	C128.855026,128.956924 128.710037,128.997330 128.565063,128.997345 
	C86.101685,129.000076 43.638306,129.000000 1.087463,129.000000 
	C1.087463,86.428566 1.087463,43.856895 1.087463,1.142612 
	C43.666348,1.142612 86.333099,1.142612 129.000000,1.142612 
	C129.000000,17.090260 129.000000,33.076469 128.721191,49.812134 
	C124.095001,46.815727 119.747635,43.069870 115.241028,39.186810 
	C119.713547,36.176472 118.229149,32.922516 116.561501,30.260992 
	C111.999352,22.979910 104.923805,20.319859 99.682571,22.814444 
	C88.958679,17.118843 78.721390,11.578112 68.347153,6.306876 
	C67.093567,5.669919 65.100067,6.489191 62.451309,6.720830 
	C69.366302,18.766159 75.727943,29.847578 82.166916,41.063717 
	C81.465340,41.325115 80.259872,41.403774 79.679070,42.046722 
	C72.052925,50.488819 64.947189,59.450150 56.853146,67.408875 
	C44.836353,79.224777 32.145969,90.356415 19.705282,101.738846 
	C18.754528,102.608719 17.464190,103.095383 16.414145,103.871696 
	C14.935376,104.964951 12.692698,105.910637 12.257705,107.362999 
	C10.982131,111.621918 12.291440,115.940865 15.550303,118.657524 
	C18.133852,120.811234 22.190895,123.164421 25.065729,122.623459 
	C32.895252,121.150146 35.248314,112.105728 41.917175,108.567215 
	C41.999226,108.523682 41.910652,108.224274 41.984859,108.090378 
	C43.052837,106.163322 43.823631,103.953697 45.283688,102.388214 
	C47.747253,99.746735 50.680458,97.548332 53.362366,95.104561 
	C65.034988,84.468361 76.681915,73.803940 88.363823,63.177967 
	C89.078278,62.528091 90.074684,62.197201 90.835342,61.587440 
	C93.345932,59.574886 95.808487,57.502403 99.487267,54.463478 
	C103.329231,58.887630 107.520569,63.714108 112.043610,68.922539 
	C114.798714,65.977196 116.666245,63.585392 118.928711,61.656895 
	C122.133118,58.925472 125.628799,56.535755 129.000000,54.000000 
M6.091483,36.139595 
	C8.174682,39.622692 10.833140,40.835457 14.344275,37.915890 
	C24.379459,47.453220 34.186752,56.773964 43.408066,65.537804 
	C47.678917,61.673756 51.672989,58.060127 56.061852,54.089314 
	C47.114803,45.620174 38.527233,37.342392 29.748880,29.272129 
	C27.097099,26.834248 25.990416,24.700487 30.225330,21.162537 
	C27.008648,19.935297 24.189407,17.768301 22.653728,18.458250 
	C15.045722,21.876360 8.815449,27.050869 6.091483,36.139595 
M114.866188,110.240677 
	C114.118492,108.859482 113.614037,107.251678 112.577728,106.139366 
	C109.407043,102.736115 106.283691,99.211487 102.682045,96.303696 
	C95.964401,90.880211 88.922470,85.858383 81.459503,80.251694 
	C80.114304,81.916893 79.179153,83.321793 78.001083,84.479462 
	C75.790367,86.651901 71.757469,88.557793 71.592468,90.803093 
	C71.406288,93.336517 74.455673,96.273254 76.431877,98.770226 
	C83.470642,107.663857 90.651344,116.445160 98.018738,125.566650 
	C103.987762,120.269722 109.268349,115.583733 114.866188,110.240677 
z"/>
<path fill="#F94757" opacity="1.000000" stroke="none" 
	d="
M129.000000,53.600002 
	C125.628799,56.535755 122.133118,58.925472 118.928711,61.656895 
	C116.666245,63.585392 114.798714,65.977196 112.043610,68.922539 
	C107.520569,63.714108 103.329231,58.887630 99.487267,54.463478 
	C95.808487,57.502403 93.345932,59.574886 90.835342,61.587440 
	C90.074684,62.197201 89.078278,62.528091 88.363823,63.177967 
	C76.681915,73.803940 65.034988,84.468361 53.362366,95.104561 
	C50.680458,97.548332 47.747253,99.746735 45.283688,102.388214 
	C43.823631,103.953697 43.052837,106.163322 41.984859,108.090378 
	C41.910652,108.224274 41.999226,108.523682 41.917175,108.567215 
	C35.248314,112.105728 32.895252,121.150146 25.065729,122.623459 
	C22.190895,123.164421 18.133852,120.811234 15.550303,118.657524 
	C12.291440,115.940865 10.982131,111.621918 12.257705,107.362999 
	C12.692698,105.910637 14.935376,104.964951 16.414145,103.871696 
	C17.464190,103.095383 18.754528,102.608719 19.705282,101.738846 
	C32.145969,90.356415 44.836353,79.224777 56.853146,67.408875 
	C64.947189,59.450150 72.052925,50.488819 79.679070,42.046722 
	C80.259872,41.403774 81.465340,41.325115 82.166916,41.063717 
	C75.727943,29.847578 69.366302,18.766159 62.451309,6.720830 
	C65.100067,6.489191 67.093567,5.669919 68.347153,6.306876 
	C78.721390,11.578112 88.958679,17.118843 99.682571,22.814444 
	C104.923805,20.319859 111.999352,22.979910 116.561501,30.260992 
	C118.229149,32.922516 119.713547,36.176472 115.241028,39.186810 
	C119.747635,43.069870 124.095001,46.815727 128.721191,50.280792 
	C129.000000,51.066669 129.000000,52.133339 129.000000,53.600002 
z"/>
<path fill="#F84757" opacity="1.000000" stroke="none" 
	d="
M6.052804,35.760937 
	C8.815449,27.050869 15.045722,21.876360 22.653728,18.458250 
	C24.189407,17.768301 27.008648,19.935297 30.225330,21.162537 
	C25.990416,24.700487 27.097099,26.834248 29.748880,29.272129 
	C38.527233,37.342392 47.114803,45.620174 56.061852,54.089314 
	C51.672989,58.060127 47.678917,61.673756 43.408066,65.537804 
	C34.186752,56.773964 24.379459,47.453220 14.344275,37.915890 
	C10.833140,40.835457 8.174682,39.622692 6.052804,35.760937 
z"/>
<path fill="#F94757" opacity="1.000000" stroke="none" 
	d="
M114.707558,110.569206 
	C109.268349,115.583733 103.987762,120.269722 98.018738,125.566650 
	C90.651344,116.445160 83.470642,107.663857 76.431877,98.770226 
	C74.455673,96.273254 71.406288,93.336517 71.592468,90.803093 
	C71.757469,88.557793 75.790367,86.651901 78.001083,84.479462 
	C79.179153,83.321793 80.114304,81.916893 81.459503,80.251694 
	C88.922470,85.858383 95.964401,90.880211 102.682045,96.303696 
	C106.283691,99.211487 109.407043,102.736115 112.577728,106.139366 
	C113.614037,107.251678 114.118492,108.859482 114.707558,110.569206 
z"/>
</svg>