<svg version="1.1" id="Layer_1" xmlns="http://www.w3.org/2000/svg" xmlns:xlink="http://www.w3.org/1999/xlink" x="0px" y="0px"
	 width="100%" viewBox="0 0 802 802" enable-background="new 0 0 802 802" xml:space="preserve">
<path fill="#1B1B1D" opacity="1.000000" stroke="none" 
	d="
M352.000000,803.000000 
	C234.666672,803.000000 117.833336,803.000000 1.000000,803.000000 
	C1.000000,535.666687 1.000000,268.333344 1.000000,1.000000 
	C268.333344,1.000000 535.666687,1.000000 803.000000,1.000000 
	C803.000000,268.333344 803.000000,535.666687 803.000000,803.000000 
	C652.833313,803.000000 502.666656,803.000000 352.000000,803.000000 
M599.354309,536.919373 
	C605.248352,529.237244 611.950928,522.036255 616.868958,513.773193 
	C627.257935,496.318054 628.554688,477.096832 626.115845,457.254211 
	C623.949280,439.627258 616.367371,424.996918 604.012207,412.487823 
	C590.609314,398.918030 573.629822,391.410339 556.574036,384.005341 
	C535.669861,374.929535 514.593811,366.236084 493.852570,356.804565 
	C484.885284,352.726898 476.993042,346.377258 473.245239,336.954254 
	C466.234131,319.326538 473.191986,301.605927 490.489899,293.337891 
	C511.196472,283.440613 532.425842,285.696899 553.348145,292.857452 
	C566.452881,297.342468 578.101318,304.651611 588.866760,314.036316 
	C598.621216,302.044647 608.172546,290.302734 617.966003,278.263153 
	C615.755554,276.473694 613.828857,274.695221 611.692017,273.221466 
	C601.858215,266.439362 592.547424,258.586334 581.969055,253.263809 
	C562.083496,243.258286 540.798645,238.305466 518.188904,238.840347 
	C497.597809,239.327469 478.197021,243.452179 460.115967,253.380783 
	C444.390442,262.015930 432.111023,274.165497 423.579681,289.949066 
	C414.825592,306.144806 413.556793,323.473633 415.863525,341.436005 
	C417.914154,357.403931 424.771851,370.964935 435.327728,382.795990 
	C447.218323,396.123047 462.542694,404.491333 478.513489,411.720612 
	C501.800903,422.261688 525.340088,432.255707 548.484985,443.095703 
	C553.904846,445.634125 558.813965,450.059082 562.857422,454.596832 
	C577.343018,470.852905 571.707153,500.095825 550.815002,510.057770 
	C536.812195,516.734680 522.241516,518.674927 506.769226,517.171143 
	C487.977173,515.344788 471.052185,508.808716 455.298248,498.967041 
	C447.303650,493.972748 439.888275,488.051270 432.223572,482.557922 
	C421.778534,494.906342 411.264191,507.336761 400.644714,519.891418 
	C402.010101,521.350220 402.934906,522.520935 404.037720,523.488892 
	C418.060303,535.796326 433.432831,545.971375 450.671265,553.278015 
	C467.119598,560.249695 484.287415,564.763428 502.015442,565.720520 
	C514.323059,566.384888 526.850647,565.393066 539.118408,563.853760 
	C561.560852,561.037781 581.819580,552.705383 599.354309,536.919373 
M364.989929,496.421173 
	C366.992859,484.446228 370.638733,472.483704 370.729218,460.494324 
	C371.272369,388.522400 370.998566,316.544250 370.998535,244.568207 
	C370.998535,242.812042 370.998566,241.055878 370.998566,239.281799 
	C352.336182,239.281799 334.417084,239.281799 315.998260,239.281799 
	C315.998260,241.515045 315.998230,243.471558 315.998230,245.428070 
	C315.998932,318.403778 315.961731,391.379578 316.057526,464.355164 
	C316.067413,471.890564 314.873016,478.975800 312.147675,486.039246 
	C305.599335,503.010986 285.914490,516.933044 267.671570,517.000549 
	C251.110168,517.061890 237.108292,511.400635 226.768753,498.163849 
	C223.723618,494.265411 221.211258,494.092773 216.592636,495.845398 
	C206.861389,499.538055 196.801651,502.603485 186.639160,504.853424 
	C176.721741,507.049164 176.089554,507.314575 181.524612,516.984558 
	C193.113907,537.603943 210.148621,551.798096 232.308777,560.192322 
	C252.146942,567.707031 272.387451,567.388367 292.704498,563.835999 
	C311.418152,560.563965 327.801392,552.005066 341.044220,538.325073 
	C352.313873,526.683472 360.105133,512.769592 364.989929,496.421173 
M285.030396,441.467407 
	C284.431763,440.888214 283.898804,440.214935 283.224548,439.744019 
	C273.736694,433.117798 257.331970,433.146301 247.348297,440.431274 
	C239.446274,446.197296 232.543533,457.409210 234.708694,471.217468 
	C237.723297,490.443268 256.961761,501.784668 274.272614,496.727051 
	C290.955505,491.852966 299.865814,477.333221 296.574280,459.372375 
	C295.290283,452.366119 292.076355,445.962250 285.030396,441.467407 
z"/>
<path fill="#FD4755" opacity="1.000000" stroke="none" 
	d="
M599.004272,537.005005 
	C581.819580,552.705383 561.560852,561.037781 539.118408,563.853760 
	C526.850647,565.393066 514.323059,566.384888 502.015442,565.720520 
	C484.287415,564.763428 467.119598,560.249695 450.671265,553.278015 
	C433.432831,545.971375 418.060303,535.796326 404.037720,523.488892 
	C402.934906,522.520935 402.010101,521.350220 400.644714,519.891418 
	C411.264191,507.336761 421.778534,494.906342 432.223572,482.557922 
	C439.888275,488.051270 447.303650,493.972748 455.298248,498.967041 
	C471.052185,508.808716 487.977173,515.344788 506.769226,517.171143 
	C522.241516,518.674927 536.812195,516.734680 550.815002,510.057770 
	C571.707153,500.095825 577.343018,470.852905 562.857422,454.596832 
	C558.813965,450.059082 553.904846,445.634125 548.484985,443.095703 
	C525.340088,432.255707 501.800903,422.261688 478.513489,411.720612 
	C462.542694,404.491333 447.218323,396.123047 435.327728,382.795990 
	C424.771851,370.964935 417.914154,357.403931 415.863525,341.436005 
	C413.556793,323.473633 414.825592,306.144806 423.579681,289.949066 
	C432.111023,274.165497 444.390442,262.015930 460.115967,253.380783 
	C478.197021,243.452179 497.597809,239.327469 518.188904,238.840347 
	C540.798645,238.305466 562.083496,243.258286 581.969055,253.263809 
	C592.547424,258.586334 601.858215,266.439362 611.692017,273.221466 
	C613.828857,274.695221 615.755554,276.473694 617.966003,278.263153 
	C608.172546,290.302734 598.621216,302.044647 588.866760,314.036316 
	C578.101318,304.651611 566.452881,297.342468 553.348145,292.857452 
	C532.425842,285.696899 511.196472,283.440613 490.489899,293.337891 
	C473.191986,301.605927 466.234131,319.326538 473.245239,336.954254 
	C476.993042,346.377258 484.885284,352.726898 493.852570,356.804565 
	C514.593811,366.236084 535.669861,374.929535 556.574036,384.005341 
	C573.629822,391.410339 590.609314,398.918030 604.012207,412.487823 
	C616.367371,424.996918 623.949280,439.627258 626.115845,457.254211 
	C628.554688,477.096832 627.257935,496.318054 616.868958,513.773193 
	C611.950928,522.036255 605.248352,529.237244 599.004272,537.005005 
z"/>
<path fill="#FE4654" opacity="1.000000" stroke="none" 
	d="
M364.924408,496.822083 
	C360.105133,512.769592 352.313873,526.683472 341.044220,538.325073 
	C327.801392,552.005066 311.418152,560.563965 292.704498,563.835999 
	C272.387451,567.388367 252.146942,567.707031 232.308777,560.192322 
	C210.148621,551.798096 193.113907,537.603943 181.524612,516.984558 
	C176.089554,507.314575 176.721741,507.049164 186.639160,504.853424 
	C196.801651,502.603485 206.861389,499.538055 216.592636,495.845398 
	C221.211258,494.092773 223.723618,494.265411 226.768753,498.163849 
	C237.108292,511.400635 251.110168,517.061890 267.671570,517.000549 
	C285.914490,516.933044 305.599335,503.010986 312.147675,486.039246 
	C314.873016,478.975800 316.067413,471.890564 316.057526,464.355164 
	C315.961731,391.379578 315.998932,318.403778 315.998230,245.428070 
	C315.998230,243.471558 315.998260,241.515045 315.998260,239.281799 
	C334.417084,239.281799 352.336182,239.281799 370.998566,239.281799 
	C370.998566,241.055878 370.998535,242.812042 370.998535,244.568207 
	C370.998566,316.544250 371.272369,388.522400 370.729218,460.494324 
	C370.638733,472.483704 366.992859,484.446228 364.924408,496.822083 
z"/>
<path fill="#FD4755" opacity="1.000000" stroke="none" 
	d="
M285.323273,441.685852 
	C292.076355,445.962250 295.290283,452.366119 296.574280,459.372375 
	C299.865814,477.333221 290.955505,491.852966 274.272614,496.727051 
	C256.961761,501.784668 237.723297,490.443268 234.708694,471.217468 
	C232.543533,457.409210 239.446274,446.197296 247.348297,440.431274 
	C257.331970,433.146301 273.736694,433.117798 283.224548,439.744019 
	C283.898804,440.214935 284.431763,440.888214 285.323273,441.685852 
z"/>
</svg>