<?xml version="1.0" encoding="utf-8"?>
<svg version="1.1" id="Layer_1" x="0px" y="0px" width="100%" viewBox="0 0 1000 1000" enable-background="new 0 0 1000 1000" xmlns="http://www.w3.org/2000/svg">
  <path fill="#FE4654" opacity="1.000000" stroke="none" d=" M547.410950,753.343201 C549.167603,753.268127 551.018677,753.529724 552.666748,753.067566 C578.949463,745.697510 605.636230,739.969238 632.825562,738.046143 C655.678772,736.429688 678.711670,736.137451 701.621704,736.786987 C753.277527,738.251648 804.253418,745.466736 854.555969,757.359070 C855.947876,757.688171 857.423523,757.662720 859.505798,757.865417 C859.505798,599.735107 859.505798,441.993164 859.505798,284.444519 C868.242371,284.444519 876.363281,284.231384 884.467957,284.503143 C892.947144,284.787476 901.474121,295.315582 901.457397,304.718903 C901.171570,465.216370 901.131165,625.714722 901.483093,786.211975 C901.511108,798.995850 889.287842,810.468079 874.582947,806.517334 C837.174805,796.466919 799.329529,788.689270 760.809326,784.102051 C729.706360,780.398010 698.564209,777.817810 667.244812,778.317627 C638.059265,778.783508 609.279175,782.711426 580.903564,789.662476 C556.629761,795.608643 533.127136,803.707031 510.334930,813.945190 C504.455048,816.586426 498.308014,816.532166 492.427765,813.856506 C458.479767,798.409363 422.985870,788.077087 386.174652,782.525879 C357.469269,778.196899 328.592438,777.566711 299.536865,779.070862 C249.576767,781.657227 200.415527,789.143066 151.793671,800.588257 C143.878632,802.451416 136.066055,804.745544 128.175018,806.715942 C114.582039,810.110107 102.508278,801.393005 101.435120,787.463989 C101.281746,785.473389 101.275192,783.468079 101.275108,781.469543 C101.268311,624.304871 101.263718,467.140167 101.303017,309.975494 C101.303886,306.496674 101.368202,302.911926 102.169510,299.559845 C104.255066,290.835419 111.396378,284.844330 121.393135,283.986816 C128.482742,283.378662 135.666550,283.868988 143.533569,283.868988 C143.533569,442.055756 143.533569,599.928406 143.533569,758.241760 C154.689713,755.924316 164.997757,753.385376 175.442978,751.693237 C199.693192,747.764771 223.913284,743.297424 248.325211,740.814941 C275.103302,738.091797 302.076874,736.161316 328.976471,736.019775 C372.060699,735.793030 414.429199,742.181641 455.766907,754.690735 C457.951630,755.351807 460.106598,756.111145 463.150970,756.184326 C462.065979,754.886353 461.187469,753.309143 459.865417,752.331848 C434.672791,733.709045 407.371124,719.028931 377.934052,708.236450 C349.619720,697.855591 320.253418,692.621094 290.352570,690.349182 C271.291656,688.900879 252.152542,688.294250 233.035934,687.849426 C223.917618,687.637329 214.725143,688.264404 205.645432,689.244690 C188.335617,691.113525 178.533981,678.734558 179.294403,665.042847 C180.217377,648.424438 179.678207,631.724060 179.745117,615.059021 C180.084290,530.577637 180.366074,446.095978 180.767349,361.614899 C180.996063,313.465393 181.420074,265.316772 181.744614,217.167709 C181.834457,203.839951 188.170349,196.254623 201.294937,193.536301 C227.528824,188.102844 254.095856,187.006607 280.758545,187.549286 C316.965515,188.286240 352.660522,192.704681 387.297668,203.765228 C425.398865,215.931931 458.788422,235.887375 486.636139,264.755402 C492.175446,270.497681 497.236176,276.701660 502.805145,283.018890 C507.732758,277.816132 512.488892,272.521576 517.530701,267.514801 C553.535339,231.760391 597.045410,210.236771 646.338135,199.649292 C684.130188,191.531998 722.406250,188.811234 760.933167,189.900238 C776.025146,190.326828 791.097778,192.190460 806.125732,193.875870 C816.608887,195.051544 823.774048,203.311981 824.375244,213.816818 C824.470398,215.478943 824.484558,217.147461 824.484619,218.813019 C824.489197,367.144470 824.476379,515.475891 824.526489,663.807373 C824.528870,670.999817 823.790405,677.701416 818.260803,683.092651 C813.093140,688.131042 807.026550,689.666870 799.999756,689.107300 C784.260559,687.853821 768.501648,685.892212 752.751648,685.900452 C693.671265,685.931213 638.291321,700.581360 586.968262,729.997864 C573.835693,737.525024 561.005249,745.579346 547.782715,753.410339 C547.529541,753.429260 547.449524,753.648071 547.449524,753.648071 C547.449524,753.648071 547.410950,753.343201 547.410950,753.343201 M443.766022,282.743805 C422.539856,264.376007 398.221588,251.438461 371.494904,243.437622 C329.786407,230.951843 286.935852,228.137680 243.656555,230.415070 C237.257324,230.751801 230.891846,231.729828 224.279053,232.435898 C223.497955,370.421204 222.720398,507.783020 221.943253,645.072632 C223.263733,645.363464 223.725403,645.541199 224.192566,645.557129 C245.810532,646.292297 267.531799,645.948486 289.019623,648.023315 C312.443726,650.285095 335.936829,653.500977 358.891846,658.591553 C401.753754,668.096741 440.729034,686.952454 476.657684,712.124817 C477.784576,712.914307 479.044647,713.513733 480.490997,714.344421 C480.627014,713.185852 480.735748,712.692017 480.735779,712.198120 C480.745605,584.892090 480.751709,457.586090 480.707001,330.280090 C480.706451,328.689972 480.437622,326.870605 479.646210,325.545013 C470.109772,309.571198 458.748962,295.097046 443.766022,282.743805 M523.248291,452.499817 C523.248291,540.931091 523.248291,629.362366 523.248291,719.343872 C601.349304,664.538940 686.723083,638.143188 781.751709,644.541931 C781.751709,641.214661 781.751709,638.916992 781.751709,636.619324 C781.751709,504.796844 781.751770,372.974335 781.751648,241.151855 C781.751587,233.899521 781.750305,233.904938 774.668091,233.191772 C772.517029,232.975143 770.374573,232.573959 768.220093,232.503769 C728.843933,231.220825 689.763550,233.419586 651.204468,242.181335 C599.360168,253.961868 556.662659,279.743774 525.927002,323.820831 C524.354187,326.076324 523.370850,329.255737 523.359619,332.010071 C523.197205,371.839447 523.248352,411.669739 523.248291,452.499817 z"/>
  <path fill="#111823" opacity="1.000000" stroke="none" d=" M547.420288,753.396912 C547.410950,753.343201 547.449524,753.648071 547.449524,753.648071 C547.449524,753.648071 547.529541,753.429260 547.426514,753.427612 C547.323486,753.426025 547.429688,753.450623 547.420288,753.396912 z"/>
  <path fill="#FD4653" opacity="1.000000" stroke="none" d=" M407.620422,564.365601 C417.873627,569.977356 428.057617,574.990540 437.644287,580.962646 C447.816895,587.299744 449.233704,598.347839 441.618011,605.815735 C436.255371,611.074280 429.510651,611.758789 422.427277,607.487305 C400.537048,594.287109 377.459808,583.729858 353.170227,575.747314 C327.983673,567.469910 302.213318,562.094849 275.855988,559.360046 C265.744751,558.310974 260.328552,551.339478 261.609711,541.538391 C262.723541,533.017090 270.400604,528.431763 280.141357,529.273804 C312.626129,532.082031 344.042999,539.485229 374.571442,550.704163 C385.634857,554.769836 396.391724,559.669739 407.620422,564.365601 z"/>
  <path fill="#FD4653" opacity="1.000000" stroke="none" d=" M286.725525,415.310913 C340.081451,421.327942 389.502197,437.761047 435.407227,464.734528 C441.684448,468.422943 444.936462,474.536469 443.980255,480.385468 C442.783813,487.704254 438.433960,492.842438 431.064484,493.577850 C427.242645,493.959198 422.642059,492.896210 419.318176,490.925659 C385.511078,470.882904 349.089691,457.794006 310.768616,449.868896 C298.764008,447.386230 286.451660,446.429352 274.337982,444.424622 C264.863922,442.856720 260.259094,436.292633 261.466400,426.971680 C262.519958,418.837860 269.263611,413.820465 278.351440,414.460938 C280.999817,414.647552 283.638916,414.965546 286.725525,415.310913 z"/>
  <path fill="#FD4654" opacity="1.000000" stroke="none" d=" M411.358246,336.627472 C420.143829,341.440979 428.728607,345.864014 437.003632,350.805756 C443.250092,354.536133 445.606079,360.834229 444.132416,367.527863 C442.837402,373.410126 437.780762,378.369598 431.064606,378.859802 C427.671753,379.107483 423.869507,377.870667 420.700226,376.363403 C404.650055,368.730255 389.084351,359.978790 372.710022,353.151245 C350.308899,343.810699 326.964905,337.125397 302.916565,333.293854 C293.576263,331.805725 284.162994,330.780701 274.808472,329.375061 C265.837036,328.026978 260.667114,321.338867 261.576080,312.582855 C262.436798,304.291199 269.187622,298.709656 277.922607,299.358795 C301.176666,301.086975 324.005005,305.295776 346.378540,311.815033 C368.580658,318.284332 390.378998,325.876495 411.358246,336.627472 z"/>
  <path fill="#FD4654" opacity="1.000000" stroke="none" d=" M686.680420,565.796753 C652.407471,573.603394 619.932617,584.973511 589.714600,602.355042 C585.410217,604.830811 581.131592,607.543213 576.505920,609.223938 C569.348328,611.824707 562.166504,608.690735 558.678711,602.263794 C555.067383,595.609253 556.435486,587.648804 562.795715,583.069336 C568.440674,579.004822 574.569519,575.563904 580.680542,572.203857 C603.498596,559.657715 627.669006,550.363892 652.540588,542.825928 C676.450378,535.579407 700.941833,531.358398 725.773193,528.954651 C733.625305,528.194519 741.419800,534.563538 742.226318,542.397705 C743.077271,550.663635 737.389648,558.062927 729.383057,559.253418 C715.275391,561.351013 701.177856,563.516235 686.680420,565.796753 z"/>
  <path fill="#FD4653" opacity="1.000000" stroke="none" d=" M691.874878,418.781250 C703.005127,417.334045 713.678711,415.691833 724.407166,414.578857 C733.209106,413.665710 740.290833,419.275909 741.237793,427.235077 C742.279114,435.986633 737.383911,442.909546 728.416748,444.449280 C714.025085,446.920502 699.394531,448.232391 685.171082,451.406403 C649.281006,459.415497 615.098816,472.077789 583.480713,491.187500 C575.467590,496.030579 565.754639,494.005920 561.397461,486.926910 C556.562988,479.072479 559.083679,470.240509 567.852844,464.863892 C594.829529,448.323761 623.845947,436.446045 654.195068,427.823792 C666.472839,424.335693 679.018372,421.789795 691.874878,418.781250 z"/>
  <path fill="#FD4654" opacity="1.000000" stroke="none" d=" M563.752808,352.847351 C570.981812,348.390778 577.747681,343.801788 584.959961,340.077118 C624.133728,319.846344 665.666443,306.959778 709.315674,300.886932 C714.415344,300.177429 719.569946,299.840485 724.706665,299.424286 C734.118958,298.661591 740.896729,304.113098 742.124573,313.353241 C743.103943,320.723511 736.835205,328.511261 728.346252,329.363220 C697.444702,332.464417 667.204956,338.765198 638.386597,350.237854 C619.594604,357.719025 601.597412,367.231018 583.392639,376.136810 C575.704773,379.897675 568.099854,379.152435 563.000488,373.186859 C558.144836,367.506409 558.331848,359.928345 563.752808,352.847351 z"/>
</svg>