<svg version="1.1" id="Layer_1" xmlns="http://www.w3.org/2000/svg" xmlns:xlink="http://www.w3.org/1999/xlink" x="0px" y="0px"
	 width="100%" viewBox="0 0 256 256" enable-background="new 0 0 256 256" xml:space="preserve">
<path fill="#1C1B1D" opacity="1.000000" stroke="none" 
	d="
M168.000000,257.000000 
	C112.000000,257.000000 56.500008,257.000000 1.000007,257.000000 
	C1.000005,171.666672 1.000005,86.333351 1.000003,1.000019 
	C86.333321,1.000013 171.666641,1.000013 257.000000,1.000006 
	C257.000000,86.333313 257.000000,171.666626 257.000000,256.999969 
	C227.500000,257.000000 198.000000,257.000000 168.000000,257.000000 
M112.539818,197.227264 
	C121.250961,201.267914 128.880630,196.675964 128.906464,187.018753 
	C129.010300,148.206238 128.967499,109.393242 128.922775,70.580490 
	C128.916946,65.525215 126.912682,61.289017 121.951843,59.508926 
	C117.379021,57.868069 113.312683,59.071552 109.738358,62.738823 
	C99.625977,73.114151 89.190231,83.175293 79.127701,93.597557 
	C76.549751,96.267662 73.954163,97.182083 70.393135,97.098373 
	C61.902363,96.898773 53.403152,96.980957 44.908283,97.055443 
	C37.307167,97.122093 33.152775,101.194824 33.097706,108.790291 
	C33.001091,122.115906 33.004902,135.442963 33.076870,148.768799 
	C33.119537,156.669937 37.546135,160.907852 45.611206,160.953537 
	C53.273582,160.996948 60.951981,161.262451 68.593498,160.861572 
	C73.656647,160.595978 77.259163,162.094711 80.804802,165.791153 
	C90.942177,176.359695 101.497002,186.527832 112.539818,197.227264 
M212.466782,82.052139 
	C201.646561,62.771198 185.834274,49.096081 165.618225,40.387066 
	C158.796188,37.448151 153.807770,38.917542 151.289139,44.514030 
	C148.440460,50.843899 150.646133,56.828114 157.326523,59.671730 
	C167.123840,63.842117 175.537552,69.836693 183.050583,77.347923 
	C206.364746,100.656563 210.243912,141.574249 191.930817,169.012085 
	C183.160706,182.151962 171.851349,191.905548 157.320282,198.063782 
	C150.864182,200.799850 148.496399,206.744598 151.114807,212.731964 
	C153.816483,218.909729 158.325363,220.420105 165.569855,217.330032 
	C179.866302,211.232010 192.111969,202.435394 202.214401,190.458755 
	C227.611343,160.350159 232.059753,116.595047 212.466782,82.052139 
M176.021317,120.647682 
	C173.105804,105.153084 164.603058,93.897324 150.530594,86.261139 
	C150.530594,114.895187 150.530594,142.854462 150.530594,171.011414 
	C166.594894,164.157990 179.980774,143.274307 176.021317,120.647682 
z"/>
<path fill="#FB4655" opacity="1.000000" stroke="none" 
	d="
M112.213730,197.040359 
	C101.497002,186.527832 90.942177,176.359695 80.804802,165.791153 
	C77.259163,162.094711 73.656647,160.595978 68.593498,160.861572 
	C60.951981,161.262451 53.273582,160.996948 45.611206,160.953537 
	C37.546135,160.907852 33.119537,156.669937 33.076870,148.768799 
	C33.004902,135.442963 33.001091,122.115906 33.097706,108.790291 
	C33.152775,101.194824 37.307167,97.122093 44.908283,97.055443 
	C53.403152,96.980957 61.902363,96.898773 70.393135,97.098373 
	C73.954163,97.182083 76.549751,96.267662 79.127701,93.597557 
	C89.190231,83.175293 99.625977,73.114151 109.738358,62.738823 
	C113.312683,59.071552 117.379021,57.868069 121.951843,59.508926 
	C126.912682,61.289017 128.916946,65.525215 128.922775,70.580490 
	C128.967499,109.393242 129.010300,148.206238 128.906464,187.018753 
	C128.880630,196.675964 121.250961,201.267914 112.213730,197.040359 
z"/>
<path fill="#F94656" opacity="1.000000" stroke="none" 
	d="
M212.658112,82.367569 
	C232.059753,116.595047 227.611343,160.350159 202.214401,190.458755 
	C192.111969,202.435394 179.866302,211.232010 165.569855,217.330032 
	C158.325363,220.420105 153.816483,218.909729 151.114807,212.731964 
	C148.496399,206.744598 150.864182,200.799850 157.320282,198.063782 
	C171.851349,191.905548 183.160706,182.151962 191.930817,169.012085 
	C210.243912,141.574249 206.364746,100.656563 183.050583,77.347923 
	C175.537552,69.836693 167.123840,63.842117 157.326523,59.671730 
	C150.646133,56.828114 148.440460,50.843899 151.289139,44.514030 
	C153.807770,38.917542 158.796188,37.448151 165.618225,40.387066 
	C185.834274,49.096081 201.646561,62.771198 212.658112,82.367569 
z"/>
<path fill="#F94555" opacity="1.000000" stroke="none" 
	d="
M176.056183,121.078400 
	C179.980774,143.274307 166.594894,164.157990 150.530594,171.011414 
	C150.530594,142.854462 150.530594,114.895187 150.530594,86.261139 
	C164.603058,93.897324 173.105804,105.153084 176.056183,121.078400 
z"/>
</svg>